<?xml version="1.0" encoding="utf-8"?>
<!-- Generator: Adobe Illustrator 18.1.1, SVG Export Plug-In . SVG Version: 6.00 Build 0)  -->
<svg version="1.1" xmlns="http://www.w3.org/2000/svg" xmlns:xlink="http://www.w3.org/1999/xlink" x="0px" y="0px" width="240px"
	 height="60px" viewBox="0 0 240 60" style="enable-background:new 0 0 240 60;" xml:space="preserve">
<style type="text/css">
	.st0{fill-rule:evenodd;clip-rule:evenodd;fill:#DF2E2D;}
	.st1{fill-rule:evenodd;clip-rule:evenodd;fill:#D1D1D1;}
	.st2{fill-rule:evenodd;clip-rule:evenodd;fill:none;}
	.st3{fill:#E02E2D;}
	.st4{fill:#D2D2D2;}
	.st5{fill:#FFFFFF;}
	.st6{fill:none;}
	.st7{fill-rule:evenodd;clip-rule:evenodd;fill:#8E8E8E;}
	.st8{fill-rule:evenodd;clip-rule:evenodd;fill:#FFFFFF;}
	.st9{fill-rule:evenodd;clip-rule:evenodd;fill:#C7C7C7;}
	.st10{fill-rule:evenodd;clip-rule:evenodd;fill:#D51723;}
	.st11{fill-rule:evenodd;clip-rule:evenodd;fill:#7B7B7B;}
	.st12{fill-rule:evenodd;clip-rule:evenodd;fill:#F4F4F4;}
	.st13{fill-rule:evenodd;clip-rule:evenodd;fill:#404040;}
	.st14{fill-rule:evenodd;clip-rule:evenodd;fill:none;stroke:#7B7B7B;stroke-width:1.0366;stroke-miterlimit:22.9256;}
</style>
<g id="_x23_Layer_1">
	<g>
		<g>
			<g>
				<g>
					<path class="st4" d="M30,53C17.3,53,7,42.7,7,30S17.3,7,30,7s23,10.3,23,23S42.7,53,30,53z M30,9C18.4,9,9,18.4,9,30
						s9.4,21,21,21s21-9.4,21-21S41.6,9,30,9z"/>
				</g>
			</g>
			<g>
				<g>
					<path class="st4" d="M43.2,31.1H16.8c-0.6,0-1.1-0.5-1.1-1.1s0.5-1.1,1.1-1.1h26.4c0.6,0,1.1,0.5,1.1,1.1S43.8,31.1,43.2,31.1z
						"/>
				</g>
			</g>
		</g>
		<rect x="0" y="0" class="st6" width="60" height="60"/>
	</g>
	<g>
		<g>
			<g>
				<g>
					<path class="st4" d="M90,53c-12.7,0-23-10.3-23-23S77.3,7,90,7s23,10.3,23,23S102.7,53,90,53z M90,9c-11.6,0-21,9.4-21,21
						s9.4,21,21,21s21-9.4,21-21S101.6,9,90,9z"/>
				</g>
			</g>
			<g>
				<g>
					<path class="st4" d="M90,44.3c-0.6,0-1.1-0.5-1.1-1.1V16.8c0-0.6,0.5-1.1,1.1-1.1s1.1,0.5,1.1,1.1v26.4
						C91.1,43.8,90.6,44.3,90,44.3z"/>
				</g>
				<g>
					<path class="st4" d="M103.2,31.1H76.8c-0.6,0-1.1-0.5-1.1-1.1s0.5-1.1,1.1-1.1h26.4c0.6,0,1.1,0.5,1.1,1.1
						S103.8,31.1,103.2,31.1z"/>
				</g>
			</g>
		</g>
		<rect x="60" y="0" class="st6" width="60" height="60"/>
	</g>
	<g>
		<g>
			<g>
				<g>
					<path class="st3" d="M150,53c-12.7,0-23-10.3-23-23s10.3-23,23-23s23,10.3,23,23S162.7,53,150,53z M150,9c-11.6,0-21,9.4-21,21
						s9.4,21,21,21s21-9.4,21-21S161.6,9,150,9z"/>
				</g>
			</g>
			<g>
				<g>
					<path class="st3" d="M163.2,31.1h-26.4c-0.6,0-1.1-0.5-1.1-1.1s0.5-1.1,1.1-1.1h26.4c0.6,0,1.1,0.5,1.1,1.1
						S163.8,31.1,163.2,31.1z"/>
				</g>
			</g>
		</g>
		<rect x="120" y="0" class="st6" width="60" height="60"/>
	</g>
	<g>
		<g>
			<g>
				<g>
					<path class="st3" d="M210,53c-12.7,0-23-10.3-23-23s10.3-23,23-23s23,10.3,23,23S222.7,53,210,53z M210,9c-11.6,0-21,9.4-21,21
						s9.4,21,21,21s21-9.4,21-21S221.6,9,210,9z"/>
				</g>
			</g>
			<g>
				<g>
					<path class="st3" d="M210,44.3c-0.6,0-1.1-0.5-1.1-1.1V16.8c0-0.6,0.5-1.1,1.1-1.1s1.1,0.5,1.1,1.1v26.4
						C211.1,43.8,210.6,44.3,210,44.3z"/>
				</g>
				<g>
					<path class="st3" d="M223.2,31.1h-26.4c-0.6,0-1.1-0.5-1.1-1.1s0.5-1.1,1.1-1.1h26.4c0.6,0,1.1,0.5,1.1,1.1
						S223.8,31.1,223.2,31.1z"/>
				</g>
			</g>
		</g>
		<rect x="180" y="0" class="st6" width="60" height="60"/>
	</g>
</g>
<g id="_x23_Layer_1_1_">
</g>
<g id="Layer_1">
</g>
<g id="_x23_Layer_1_2_">
</g>
<g id="_x23_Layer_1_3_">
</g>
<g id="_x23_Layer_1_4_">
</g>
<g id="_x23_Layer_1_5_">
</g>
<g id="_x23_Layer_1_6_">
</g>
<g id="_x23_Layer_1_7_">
</g>
<g id="_x23_Layer_1_8_">
</g>
<g id="_x23_Layer_1_9_">
</g>
<g id="_x23_Layer_1_10_">
</g>
<g id="_x23_Layer_1_11_">
</g>
<g id="_x23_Layer_1_12_">
</g>
<g id="_x23_Layer_1_13_">
</g>
<g id="_x23_Layer_1_14_">
</g>
<g id="_x23_Layer_1_15_">
</g>
<g id="_x23_Layer_1_16_">
</g>
<g id="_x23_Layer_1_17_">
</g>
<g id="_x23_Layer_1_18_">
</g>
<g id="_x23_Layer_1_19_">
</g>
<g id="_x23_Layer_1_20_">
</g>
<g id="_x23_Layer_1_21_">
</g>
<g id="_x23_Layer_1_22_">
</g>
<g id="_x23_Layer_1_23_">
</g>
<g id="_x23_Layer_1_24_">
</g>
<g id="_x23_Layer_1_25_">
</g>
<g id="_x23_Layer_1_26_">
</g>
</svg>
