<?xml version="1.0" encoding="utf-8"?>
<!-- Generator: Adobe Illustrator 18.1.1, SVG Export Plug-In . SVG Version: 6.00 Build 0)  -->
<svg version="1.1" xmlns="http://www.w3.org/2000/svg" xmlns:xlink="http://www.w3.org/1999/xlink" x="0px" y="0px" width="160px"
	 height="80px" viewBox="0 0 160 80" style="enable-background:new 0 0 160 80;" xml:space="preserve">
<style type="text/css">
	.st5{fill:#FFFFFF;}
	.st11{fill:#C7C7C7;}
</style>
<g>
	<g>
		<circle class="st11" cx="22" cy="40" r="4"/>
		<circle class="st11" cx="40" cy="40" r="4"/>
		<path class="st11" d="M62,40c0,2.2-1.8,4-4,4c-2.2,0-4-1.8-4-4c0-2.2,1.8-4,4-4C60.2,36,62,37.8,62,40z"/>
	</g>
	<g>
		<circle class="st5" cx="102" cy="40" r="4"/>
		<circle class="st5" cx="120" cy="40" r="4"/>
		<path class="st5" d="M142,40c0,2.2-1.8,4-4,4c-2.2,0-4-1.8-4-4c0-2.2,1.8-4,4-4C140.2,36,142,37.8,142,40z"/>
	</g>
</g>
</svg>
