<?xml version="1.0" encoding="utf-8"?>
<!-- Generator: Adobe Illustrator 18.1.1, SVG Export Plug-In . SVG Version: 6.00 Build 0)  -->
<svg version="1.1" xmlns="http://www.w3.org/2000/svg" xmlns:xlink="http://www.w3.org/1999/xlink" x="0px" y="0px" width="190px"
	 height="190px" viewBox="0 0 190 190" style="enable-background:new 0 0 190 190;" xml:space="preserve">
<style type="text/css">
	.st0{fill-rule:evenodd;clip-rule:evenodd;fill:#DF2E2D;}
	.st1{fill-rule:evenodd;clip-rule:evenodd;fill:#D1D1D1;}
	.st2{fill-rule:evenodd;clip-rule:evenodd;fill:none;}
	.st3{fill:#E02E2D;}
	.st4{fill:#D2D2D2;}
	.st5{fill:#FFFFFF;}
	.st6{fill:none;}
	.st7{fill-rule:evenodd;clip-rule:evenodd;fill:#8E8E8E;}
	.st8{fill-rule:evenodd;clip-rule:evenodd;fill:#FFFFFF;}
	.st9{fill-rule:evenodd;clip-rule:evenodd;fill:#C7C7C7;}
	.st10{fill-rule:evenodd;clip-rule:evenodd;fill:#D51723;}
	.st11{fill-rule:evenodd;clip-rule:evenodd;fill:#7B7B7B;}
	.st12{fill-rule:evenodd;clip-rule:evenodd;fill:#F4F4F4;}
	.st13{fill-rule:evenodd;clip-rule:evenodd;fill:#404040;}
	.st14{fill-rule:evenodd;clip-rule:evenodd;fill:none;stroke:#7B7B7B;stroke-width:1.0366;stroke-miterlimit:22.9256;}
</style>
<g id="_x23_Layer_1">
</g>
<g id="_x23_Layer_1_1_">
</g>
<g id="Layer_1">
	<g>
		<g>
			<g>
				<path class="st1" d="M143,95c0-13.2-5.4-25.2-14.1-33.9C120.2,52.4,108.2,47,95,47c-13.2,0-25.2,5.4-33.9,14.1
					C52.4,69.8,47,81.8,47,95s5.4,25.2,14.1,33.9C69.8,137.6,81.8,143,95,143c13.2,0,25.2-5.4,33.9-14.1
					C137.6,120.2,143,108.2,143,95L143,95z M131.8,58.2L131.8,58.2C141.2,67.6,147,80.6,147,95s-5.8,27.4-15.2,36.8
					c-9.4,9.4-22.4,15.2-36.8,15.2c-14.4,0-27.4-5.8-36.8-15.2C48.8,122.4,43,109.4,43,95s5.8-27.4,15.2-36.8
					C67.6,48.8,80.6,43,95,43C109.4,43,122.4,48.8,131.8,58.2z"/>
				<path class="st1" d="M91.2,70.8c0.8-0.8,2-0.8,2.8,0c0.8,0.8,0.8,2,0,2.8L72.8,95L94,116.4c0.8,0.8,0.8,2,0,2.8
					c-0.8,0.8-2,0.8-2.8,0L68.6,96.4L67.2,95l1.4-1.4L91.2,70.8z"/>
				<path class="st1" d="M70,97c-1.1,0-2-0.9-2-2c0-1.1,0.9-2,2-2h50c1.1,0,2,0.9,2,2c0,1.1-0.9,2-2,2H70z"/>
			</g>
		</g>
		<rect x="0" y="0" class="st2" width="190" height="190"/>
	</g>
</g>
<g id="_x23_Layer_1_2_">
</g>
<g id="_x23_Layer_1_3_">
</g>
<g id="_x23_Layer_1_4_">
</g>
<g id="_x23_Layer_1_5_">
</g>
<g id="_x23_Layer_1_6_">
</g>
<g id="_x23_Layer_1_7_">
</g>
<g id="_x23_Layer_1_8_">
</g>
<g id="_x23_Layer_1_9_">
</g>
<g id="_x23_Layer_1_10_">
</g>
<g id="_x23_Layer_1_11_">
</g>
<g id="_x23_Layer_1_12_">
</g>
<g id="_x23_Layer_1_13_">
</g>
<g id="_x23_Layer_1_14_">
</g>
<g id="_x23_Layer_1_15_">
</g>
<g id="_x23_Layer_1_16_">
</g>
<g id="_x23_Layer_1_17_">
</g>
<g id="_x23_Layer_1_18_">
</g>
<g id="_x23_Layer_1_19_">
</g>
<g id="_x23_Layer_1_20_">
</g>
<g id="_x23_Layer_1_21_">
</g>
<g id="_x23_Layer_1_22_">
</g>
<g id="_x23_Layer_1_23_">
</g>
<g id="_x23_Layer_1_24_">
</g>
<g id="_x23_Layer_1_25_">
</g>
<g id="_x23_Layer_1_26_">
</g>
</svg>
