<?xml version="1.0" encoding="utf-8"?>
<!-- Generator: Adobe Illustrator 18.1.1, SVG Export Plug-In . SVG Version: 6.00 Build 0)  -->
<svg version="1.1" xmlns="http://www.w3.org/2000/svg" xmlns:xlink="http://www.w3.org/1999/xlink" x="0px" y="0px" width="840px"
	 height="84px" viewBox="0 0 840 84" style="enable-background:new 0 0 840 84;" xml:space="preserve">
<style type="text/css">
	.st0{fill-rule:evenodd;clip-rule:evenodd;fill:#DF2E2D;}
	.st1{fill-rule:evenodd;clip-rule:evenodd;fill:#D1D1D1;}
	.st2{fill-rule:evenodd;clip-rule:evenodd;fill:none;}
	.st3{fill:#E02E2D;}
	.st4{fill:#D2D2D2;}
	.st5{fill:#FFFFFF;}
	.st6{fill:none;}
	.st7{fill-rule:evenodd;clip-rule:evenodd;fill:#8E8E8E;}
	.st8{fill-rule:evenodd;clip-rule:evenodd;fill:#FFFFFF;}
	.st9{fill-rule:evenodd;clip-rule:evenodd;fill:#C7C7C7;}
	.st10{fill-rule:evenodd;clip-rule:evenodd;fill:#D51723;}
	.st11{fill-rule:evenodd;clip-rule:evenodd;fill:#7B7B7B;}
	.st12{fill-rule:evenodd;clip-rule:evenodd;fill:#F4F4F4;}
	.st13{fill-rule:evenodd;clip-rule:evenodd;fill:#404040;}
	.st14{fill-rule:evenodd;clip-rule:evenodd;fill:none;stroke:#7B7B7B;stroke-width:1.0366;stroke-miterlimit:22.9256;}
</style>
<g id="_x23_Layer_1">
	<g>
		<g>
			<g>
				<polygon class="st0" points="634.1,6.6 648,6.6 648,14.7 654.1,14.7 654.1,0 605.9,0 605.9,14.8 612,14.8 612,6.6 626.9,6.6 
					626.9,49.2 620.2,49.2 620.2,55.3 640.4,55.3 640.4,49.2 634.1,49.2 				"/>
			</g>
			<g>
				<polygon class="st1" points="214.1,6.6 228.1,6.6 228.1,14.7 234.1,14.7 234.1,0 185.9,0 185.9,14.8 192,14.8 192,6.6 
					206.9,6.6 206.9,49.2 200.2,49.2 200.2,55.3 220.4,55.3 220.4,49.2 214.1,49.2 				"/>
			</g>
			<g>
				<g>
					<g>
						<path class="st0" d="M796.1,51.6l-4.3,3.8H780l-4.2-3.8V23.1l4.3-3.8h11.8l4.3,3.8v28.5H796.1L796.1,51.6z M789.4,48.7
							L789.4,48.7V26h-7.1v22.7H789.4z"/>
						<path class="st0" d="M820.1,51.6l-4.3,3.8H804l-4.2-3.8V23.1l4.3-3.8h11.8l4.3,3.8v28.5H820.1L820.1,51.6z M813.6,48.7
							L813.6,48.7V26h-7.1v22.7H813.6z"/>
					</g>
					<g>
						<polygon class="st0" points="782.1,16.4 778.8,7.9 778.8,16.4 775.8,16.4 775.8,0 779,0 782.3,8.7 782.3,0 785.3,0 
							785.3,16.4 						"/>
						<path class="st0" d="M794.5,16.4l-0.8-3.7h-3.2l-0.8,3.7h-3.1L790.1,0h4.2l3.3,16.4H794.5L794.5,16.4z M793.1,9.7L793.1,9.7
							l-0.9-4.9l-0.9,4.9H793.1z"/>
						<polygon class="st0" points="810.4,16.4 807.4,16.4 807.4,7.2 804.8,12.9 802.1,7.2 802.1,16.4 799.1,16.4 799.1,0 802.1,0 
							804.8,5.6 807.4,0 810.4,0 						"/>
						<polygon class="st0" points="820.1,16.4 812.2,16.4 812.2,0 820.1,0 820.1,3 815.3,3 815.3,6.7 819.5,6.7 819.5,9.7 
							815.3,9.7 815.3,13.4 820.1,13.4 						"/>
					</g>
				</g>
			</g>
			<g>
				<g>
					<g>
						<path class="st1" d="M376.1,51.6l-4.3,3.8H360l-4.2-3.8V23.1l4.3-3.8h11.8l4.3,3.8v28.5H376.1L376.1,51.6z M369.4,48.7
							L369.4,48.7V26h-7.1v22.7H369.4z"/>
						<path class="st1" d="M400.1,51.6l-4.3,3.8H384l-4.2-3.8V23.1l4.3-3.8h11.8l4.3,3.8v28.5H400.1L400.1,51.6z M393.6,48.7
							L393.6,48.7V26h-7.1v22.7H393.6z"/>
					</g>
					<g>
						<polygon class="st1" points="362.1,16.4 358.8,7.9 358.8,16.4 355.8,16.4 355.8,0 359,0 362.3,8.7 362.3,0 365.3,0 
							365.3,16.4 						"/>
						<path class="st1" d="M374.5,16.4l-0.8-3.7h-3.1l-0.8,3.7h-3.2L370.1,0h4.2l3.3,16.4H374.5L374.5,16.4z M373.1,9.7L373.1,9.7
							l-0.9-4.9l-0.9,4.9H373.1z"/>
						<polygon class="st1" points="390.4,16.4 387.4,16.4 387.4,7.2 384.8,12.9 382.1,7.2 382.1,16.4 379.1,16.4 379.1,0 382.1,0 
							384.8,5.6 387.4,0 390.4,0 						"/>
						<polygon class="st1" points="400.1,16.4 392.2,16.4 392.2,0 400.1,0 400.1,3 395.3,3 395.3,6.7 399.5,6.7 399.5,9.7 
							395.3,9.7 395.3,13.4 400.1,13.4 						"/>
					</g>
				</g>
			</g>
			<g>
				<g>
					<g>
						<g>
							<path class="st0" d="M742,2v51.4h-55.8V2H742L742,2z M743.9,0L743.9,0h-59.7v55.4h59.7V0z"/>
						</g>
					</g>
					<g>
						<path class="st0" d="M724.2,13.4c0,3.4,2.8,6.2,6.2,6.2c3.4,0,6.2-2.8,6.2-6.2c0-3.4-2.8-6.2-6.2-6.2
							C727,7.4,724.2,10.1,724.2,13.4z"/>
						<polygon class="st0" points="743.9,55.4 724.6,27.7 717.7,36 704.7,17.2 684.9,55.4 						"/>
					</g>
				</g>
			</g>
			<g>
				<g>
					<g>
						<g>
							<path class="st1" d="M322,2v51.4h-55.8V2H322L322,2z M323.9,0L323.9,0h-59.7v55.4l59.7,0V0z"/>
						</g>
					</g>
					<path class="st1" d="M304.2,13.4c0,3.4,2.8,6.2,6.2,6.2c3.4,0,6.2-2.8,6.2-6.2s-2.8-6.2-6.2-6.2C307,7.2,304.2,10.1,304.2,13.4
						z"/>
					<polygon class="st1" points="323.9,55.4 304.6,27.7 297.7,36 284.7,17.2 264.2,55.4 					"/>
				</g>
			</g>
			<g>
				<g>
					<path class="st0" d="M546,0c-15.4,0-27.7,12.3-27.7,27.7c0,15.4,12.3,27.7,27.7,27.7c2.5,0,4.6-2.1,4.6-4.6
						c0-1.2-0.3-2.1-1.2-3c-0.7-0.9-1.2-1.8-1.2-3c0-2.5,2.1-4.6,4.6-4.6l5.5,0c8.7,0,15.4-6.8,15.4-15.4C573.7,11,561.4,0,546,0
						L546,0z M529.1,27.7L529.1,27.7c-2.5,0-4.6-2.1-4.6-4.6c0-2.5,2.1-4.6,4.6-4.6c2.5,0,4.6,2.1,4.6,4.6
						C533.7,25.5,531.6,27.7,529.1,27.7L529.1,27.7z M538.3,15.4L538.3,15.4c-2.5,0-4.6-2.1-4.6-4.6c0-2.5,2.1-4.6,4.6-4.6
						c2.5,0,4.6,2.1,4.6,4.6C543,13.3,540.8,15.4,538.3,15.4L538.3,15.4z M553.7,15.4L553.7,15.4c-2.5,0-4.6-2.1-4.6-4.6
						c0-2.5,2.1-4.6,4.6-4.6c2.5,0,4.6,2.1,4.6,4.6C558.3,13.3,556.1,15.4,553.7,15.4L553.7,15.4z M562.9,27.7L562.9,27.7
						c-2.5,0-4.6-2.1-4.6-4.6c0-2.5,2.1-4.6,4.6-4.6c2.5,0,4.6,2.1,4.6,4.6C567.5,25.5,565.4,27.7,562.9,27.7z"/>
				</g>
			</g>
			<g>
				<g>
					<path class="st1" d="M126,0c-15.4,0-27.7,12.3-27.7,27.7c0,15.4,12.3,27.7,27.7,27.7c2.5,0,4.6-2.1,4.6-4.6
						c0-1.2-0.3-2.1-1.2-3c-0.7-0.9-1.2-1.8-1.2-3c0-2.5,2.1-4.6,4.6-4.6h5.5c8.7,0,15.4-6.8,15.4-15.4C153.7,11,141.4,0,126,0
						L126,0z M109.1,27.7L109.1,27.7c-2.5,0-4.6-2.1-4.6-4.6s2.1-4.6,4.6-4.6c2.5,0,4.6,2.1,4.6,4.6
						C113.7,25.5,111.6,27.7,109.1,27.7L109.1,27.7z M118.3,15.4L118.3,15.4c-2.5,0-4.6-2.1-4.6-4.6c0-2.5,2.1-4.6,4.6-4.6
						c2.5,0,4.6,2.1,4.6,4.6C123,13.3,120.8,15.4,118.3,15.4L118.3,15.4z M133.7,15.4L133.7,15.4c-2.5,0-4.6-2.1-4.6-4.6
						c0-2.5,2.1-4.6,4.6-4.6c2.5,0,4.6,2.1,4.6,4.6C138.3,13.3,136.1,15.4,133.7,15.4L133.7,15.4z M142.9,27.7L142.9,27.7
						c-2.5,0-4.6-2.1-4.6-4.6s2.1-4.6,4.6-4.6c2.5,0,4.6,2.1,4.6,4.6C147.5,25.5,145.4,27.7,142.9,27.7z"/>
				</g>
			</g>
			<g>
				<path class="st0" d="M485,7c-2-3.3-6.2-4.6-6.2-4.6L469.4,0c0,0-2.4,4.9-7.2,4.9c-4.7,0-7.2-4.9-7.2-4.9l-9.6,2.4
					c0,0-4.2,1.3-6.2,4.6c-3.1,5.3-8.1,12.5-8.1,12.5l9.1,5.5l5.3-7.9v38.2l33.5,0V29V17.1l5.2,7.9l8.9-5.5
					C493.1,19.4,488.1,12.2,485,7z"/>
			</g>
			<g>
				<path class="st1" d="M65,7c-2-3.3-6.2-4.6-6.2-4.6L49.4,0c0,0-2.4,4.9-7.2,4.9C37.5,4.9,35,0,35,0l-9.6,2.4c0,0-4.2,1.3-6.2,4.6
					c-3.1,5.3-8.1,12.5-8.1,12.5l8.9,5.5l5.3-7.9v38.2h33.5V29V17.1l5.3,7.9l8.9-5.5C73.2,19.4,68.2,12.2,65,7z"/>
			</g>
		</g>
		<rect x="0" y="0" class="st2" width="840" height="84"/>
	</g>
</g>
<g id="_x23_Layer_1_1_">
</g>
<g id="Layer_1">
</g>
<g id="_x23_Layer_1_2_">
</g>
<g id="_x23_Layer_1_3_">
</g>
<g id="_x23_Layer_1_4_">
</g>
<g id="_x23_Layer_1_5_">
</g>
<g id="_x23_Layer_1_6_">
</g>
<g id="_x23_Layer_1_7_">
</g>
<g id="_x23_Layer_1_8_">
</g>
<g id="_x23_Layer_1_9_">
</g>
<g id="_x23_Layer_1_10_">
</g>
<g id="_x23_Layer_1_11_">
</g>
<g id="_x23_Layer_1_12_">
</g>
<g id="_x23_Layer_1_13_">
</g>
<g id="_x23_Layer_1_14_">
</g>
<g id="_x23_Layer_1_15_">
</g>
<g id="_x23_Layer_1_16_">
</g>
<g id="_x23_Layer_1_17_">
</g>
<g id="_x23_Layer_1_18_">
</g>
<g id="_x23_Layer_1_19_">
</g>
<g id="_x23_Layer_1_20_">
</g>
<g id="_x23_Layer_1_21_">
</g>
<g id="_x23_Layer_1_22_">
</g>
<g id="_x23_Layer_1_23_">
</g>
<g id="_x23_Layer_1_24_">
</g>
<g id="_x23_Layer_1_25_">
</g>
<g id="_x23_Layer_1_26_">
</g>
</svg>
