<?xml version="1.0" encoding="utf-8"?>
<!-- Generator: Adobe Illustrator 18.1.1, SVG Export Plug-In . SVG Version: 6.00 Build 0)  -->
<svg version="1.1" xmlns="http://www.w3.org/2000/svg" xmlns:xlink="http://www.w3.org/1999/xlink" x="0px" y="0px" width="900px"
	 height="60px" viewBox="0 0 900 60" style="enable-background:new 0 0 900 60;" xml:space="preserve">
<style type="text/css">
	.st0{fill-rule:evenodd;clip-rule:evenodd;fill:#DF2E2D;}
	.st1{fill-rule:evenodd;clip-rule:evenodd;fill:#D1D1D1;}
	.st2{fill-rule:evenodd;clip-rule:evenodd;fill:none;}
	.st3{fill:#E02E2D;}
	.st4{fill:#D2D2D2;}
	.st5{fill:#FFFFFF;}
	.st6{fill:none;}
	.st7{fill-rule:evenodd;clip-rule:evenodd;fill:#8E8E8E;}
	.st8{fill-rule:evenodd;clip-rule:evenodd;fill:#FFFFFF;}
	.st9{fill-rule:evenodd;clip-rule:evenodd;fill:#C7C7C7;}
	.st10{fill-rule:evenodd;clip-rule:evenodd;fill:#D51723;}
	.st11{fill:#C7C7C7;}
	.st12{fill-rule:evenodd;clip-rule:evenodd;fill:#7B7B7B;}
	.st13{fill-rule:evenodd;clip-rule:evenodd;fill:#F4F4F4;}
	.st14{fill-rule:evenodd;clip-rule:evenodd;fill:#404040;}
	.st15{fill-rule:evenodd;clip-rule:evenodd;fill:none;stroke:#7B7B7B;stroke-width:1.0366;stroke-miterlimit:22.9256;}
</style>
<g id="_x23_Layer_1">
</g>
<g id="_x23_Layer_1_1_">
</g>
<g id="Layer_1">
</g>
<g id="_x23_Layer_1_2_">
</g>
<g id="_x23_Layer_1_3_">
</g>
<g id="_x23_Layer_1_4_">
</g>
<g id="_x23_Layer_1_5_">
</g>
<g id="_x23_Layer_1_6_">
</g>
<g id="_x23_Layer_1_7_">
</g>
<g id="_x23_Layer_1_8_">
</g>
<g id="_x23_Layer_1_9_">
</g>
<g id="_x23_Layer_1_10_">
</g>
<g id="_x23_Layer_1_11_">
</g>
<g id="_x23_Layer_1_12_">
</g>
<g id="_x23_Layer_1_13_">
</g>
<g id="_x23_Layer_1_14_">
</g>
<g id="_x23_Layer_1_15_">
</g>
<g id="_x23_Layer_1_16_">
</g>
<g id="_x23_Layer_1_17_">
</g>
<g id="_x23_Layer_1_18_">
</g>
<g id="_x23_Layer_1_19_">
</g>
<g id="_x23_Layer_1_20_">
</g>
<g id="_x23_Layer_1_21_">
</g>
<g id="_x23_Layer_1_22_">
</g>
<g id="_x23_Layer_1_23_">
	<g>
		<g>
			<g>
				<rect x="300" y="0" class="st4" width="60" height="60"/>
			</g>
			<g>
				<rect x="301" y="1" class="st5" width="58" height="58"/>
			</g>
			<g>
				<circle class="st4" cx="316.5" cy="30" r="3"/>
				<circle class="st4" cx="330" cy="30" r="3"/>
				<path class="st4" d="M346.5,30c0,1.7-1.3,3-3,3c-1.7,0-3-1.3-3-3c0-1.7,1.3-3,3-3C345.2,27,346.5,28.3,346.5,30z"/>
			</g>
		</g>
		<g>
			<g>
				<rect x="120" y="0" class="st5" width="60" height="60"/>
			</g>
			<g>
				<g>
					<g>
						<g>
							<line class="st5" x1="128.1" y1="12" x2="171.9" y2="12"/>
							<rect x="128.1" y="11" class="st4" width="43.7" height="2"/>
						</g>
						<g>
							<line class="st5" x1="141" y1="21" x2="171.9" y2="21"/>
							<rect x="141" y="20" class="st4" width="30.9" height="2"/>
						</g>
						<g>
							<line class="st5" x1="151.3" y1="30" x2="171.9" y2="30"/>
							<rect x="151.3" y="29" class="st4" width="20.6" height="2"/>
						</g>
						<g>
							<line class="st5" x1="128.1" y1="39" x2="171.9" y2="39"/>
							<rect x="128.1" y="38" class="st4" width="43.7" height="2"/>
						</g>
						<g>
							<line class="st5" x1="143.6" y1="48" x2="171.9" y2="48"/>
							<rect x="143.6" y="47" class="st4" width="28.3" height="2"/>
						</g>
					</g>
				</g>
			</g>
		</g>
		<g>
			<g>
				<rect x="60" y="0" class="st5" width="60" height="60"/>
			</g>
			<g>
				<g>
					<g>
						<line class="st4" x1="68.1" y1="12" x2="111.9" y2="12"/>
						<rect x="68.1" y="11" class="st4" width="43.7" height="2"/>
					</g>
					<g>
						<line class="st4" x1="75.9" y1="21" x2="104.1" y2="21"/>
						<rect x="75.9" y="20" class="st4" width="28.3" height="2"/>
					</g>
					<g>
						<line class="st4" x1="79.7" y1="30" x2="100.3" y2="30"/>
						<rect x="79.7" y="29" class="st4" width="20.6" height="2"/>
					</g>
					<g>
						<line class="st4" x1="68.1" y1="39" x2="111.9" y2="39"/>
						<rect x="68.1" y="38" class="st4" width="43.7" height="2"/>
					</g>
					<g>
						<line class="st4" x1="77.1" y1="48" x2="102.9" y2="48"/>
						<rect x="77.1" y="47" class="st4" width="25.7" height="2"/>
					</g>
				</g>
			</g>
		</g>
		<g>
			<g>
				<rect x="0" y="0" class="st5" width="60" height="60"/>
			</g>
			<g>
				<g>
					<g>
						<line class="st5" x1="8.1" y1="12" x2="51.9" y2="12"/>
						<rect x="8.1" y="11" class="st4" width="43.7" height="2"/>
					</g>
					<g>
						<line class="st5" x1="8.1" y1="21" x2="39" y2="21"/>
						<rect x="8.1" y="20" class="st4" width="30.9" height="2"/>
					</g>
					<g>
						<line class="st5" x1="8.1" y1="30" x2="28.7" y2="30"/>
						<rect x="8.1" y="29" class="st4" width="20.6" height="2"/>
					</g>
					<g>
						<line class="st5" x1="8.1" y1="39" x2="51.9" y2="39"/>
						<rect x="8.1" y="38" class="st4" width="43.7" height="2"/>
					</g>
					<g>
						<line class="st5" x1="8.1" y1="48" x2="36.4" y2="48"/>
						<rect x="8.1" y="47" class="st4" width="28.3" height="2"/>
					</g>
				</g>
			</g>
		</g>
		<g>
			<g>
				<rect x="180" y="0" class="st5" width="60" height="60"/>
			</g>
			<path class="st4" d="M213.7,11h12.6v7.4h5.4V5h-43.5v13.4h5.4V11h13.5v38.6h-6.1V55h18.2v-5.4h-5.7V11z"/>
		</g>
		<g>
			<g>
				<rect x="240" y="0" class="st4" width="60" height="60"/>
			</g>
			<rect x="242" y="1.9" class="st5" width="56" height="56"/>
			<g>
				<g>
					<path class="st4" d="M270.1,44.3c-0.6,0-1-0.4-1-1V16.9c0-0.6,0.4-1,1-1c0.6,0,1,0.4,1,1v26.4
						C271.1,43.8,270.6,44.3,270.1,44.3z"/>
				</g>
				<g>
					<path class="st4" d="M283.3,31.1h-26.4c-0.6,0-1-0.4-1-1c0-0.6,0.4-1,1-1h26.4c0.6,0,1,0.4,1,1
						C284.3,30.6,283.8,31.1,283.3,31.1z"/>
				</g>
			</g>
		</g>
		<g>
			<g>
				<rect x="660" y="0" class="st3" width="60" height="60"/>
			</g>
			<g>
				<rect x="661" y="1" class="st5" width="58" height="58"/>
			</g>
			<g>
				<circle class="st3" cx="676.5" cy="30" r="3"/>
				<circle class="st3" cx="690" cy="30" r="3"/>
				<path class="st3" d="M706.5,30c0,1.7-1.3,3-3,3c-1.7,0-3-1.3-3-3c0-1.7,1.3-3,3-3C705.2,27,706.5,28.3,706.5,30z"/>
			</g>
		</g>
		<g>
			<g>
				<rect x="480" y="0" class="st5" width="60" height="60"/>
			</g>
			<g>
				<g>
					<g>
						<g>
							<line class="st3" x1="488.1" y1="12" x2="531.9" y2="12"/>
							<rect x="488.1" y="11" class="st3" width="43.7" height="2"/>
						</g>
						<g>
							<line class="st3" x1="501" y1="21" x2="531.9" y2="21"/>
							<rect x="501" y="20" class="st3" width="30.9" height="2"/>
						</g>
						<g>
							<line class="st3" x1="511.3" y1="30" x2="531.9" y2="30"/>
							<rect x="511.3" y="29" class="st3" width="20.6" height="2"/>
						</g>
						<g>
							<line class="st3" x1="488.1" y1="39" x2="531.9" y2="39"/>
							<rect x="488.1" y="38" class="st3" width="43.7" height="2"/>
						</g>
						<g>
							<line class="st3" x1="503.6" y1="48" x2="531.9" y2="48"/>
							<rect x="503.6" y="47" class="st3" width="28.3" height="2"/>
						</g>
					</g>
				</g>
			</g>
		</g>
		<g>
			<g>
				<rect x="420" y="0" class="st5" width="60" height="60"/>
			</g>
			<g>
				<g>
					<g>
						<line class="st3" x1="428.1" y1="12" x2="471.9" y2="12"/>
						<rect x="428.1" y="11" class="st3" width="43.7" height="2"/>
					</g>
					<g>
						<line class="st3" x1="435.9" y1="21" x2="464.1" y2="21"/>
						<rect x="435.9" y="20" class="st3" width="28.3" height="2"/>
					</g>
					<g>
						<line class="st3" x1="439.7" y1="30" x2="460.3" y2="30"/>
						<rect x="439.7" y="29" class="st3" width="20.6" height="2"/>
					</g>
					<g>
						<line class="st3" x1="428.1" y1="39" x2="471.9" y2="39"/>
						<rect x="428.1" y="38" class="st3" width="43.7" height="2"/>
					</g>
					<g>
						<line class="st3" x1="437.1" y1="48" x2="462.9" y2="48"/>
						<rect x="437.1" y="47" class="st3" width="25.7" height="2"/>
					</g>
				</g>
			</g>
		</g>
		<g>
			<g>
				<rect x="360" y="0" class="st5" width="60" height="60"/>
			</g>
			<g>
				<g>
					<g>
						<line class="st3" x1="368.1" y1="12" x2="411.9" y2="12"/>
						<rect x="368.1" y="11" class="st3" width="43.7" height="2"/>
					</g>
					<g>
						<line class="st3" x1="368.1" y1="21" x2="399" y2="21"/>
						<rect x="368.1" y="20" class="st3" width="30.9" height="2"/>
					</g>
					<g>
						<line class="st3" x1="368.1" y1="30" x2="388.7" y2="30"/>
						<rect x="368.1" y="29" class="st3" width="20.6" height="2"/>
					</g>
					<g>
						<line class="st3" x1="368.1" y1="39" x2="411.9" y2="39"/>
						<rect x="368.1" y="38" class="st3" width="43.7" height="2"/>
					</g>
					<g>
						<line class="st3" x1="368.1" y1="48" x2="396.4" y2="48"/>
						<rect x="368.1" y="47" class="st3" width="28.3" height="2"/>
					</g>
				</g>
			</g>
		</g>
		<g>
			<g>
				<rect x="540" y="0" class="st5" width="60" height="60"/>
			</g>
			<path class="st3" d="M573.7,11h12.6v7.4h5.4V5h-43.5v13.4h5.4V11h13.5v38.6h-6.1V55h18.2v-5.4h-5.7V11z"/>
		</g>
		<g>
			<g>
				<rect x="600" y="0" class="st3" width="60" height="60"/>
			</g>
			<rect x="602" y="1.9" class="st5" width="56" height="56"/>
			<g>
				<g>
					<path class="st3" d="M630.1,44.3c-0.6,0-1-0.4-1-1V16.9c0-0.6,0.4-1,1-1s1,0.4,1,1v26.4C631.1,43.8,630.6,44.3,630.1,44.3z"/>
				</g>
				<g>
					<path class="st3" d="M643.3,31.1h-26.4c-0.6,0-1-0.4-1-1c0-0.6,0.4-1,1-1h26.4c0.6,0,1,0.4,1,1
						C644.3,30.6,643.8,31.1,643.3,31.1z"/>
				</g>
			</g>
		</g>
		<g>
			<g>
				<rect x="840" y="0" class="st3" width="60" height="60"/>
			</g>
			<rect x="842" y="1.9" class="st3" width="56" height="56"/>
			<g>
				<g>
					<path class="st5" d="M870.1,44.3c-0.6,0-1-0.4-1-1V16.9c0-0.6,0.4-1,1-1c0.6,0,1,0.4,1,1v26.4
						C871.1,43.8,870.6,44.3,870.1,44.3z"/>
				</g>
				<g>
					<path class="st5" d="M883.3,31.1h-26.4c-0.6,0-1-0.4-1-1c0-0.6,0.4-1,1-1h26.4c0.6,0,1,0.4,1,1
						C884.3,30.6,883.8,31.1,883.3,31.1z"/>
				</g>
			</g>
		</g>
		<path class="st8" d="M780,30c0,16.6-13.4,30-30,30c-16.6,0-30-13.4-30-30c0-16.4,13.4-30,30-30C766.6,0,780,13.6,780,30z"/>
		<g>
			<g>
				<path class="st8" d="M810,2.9c14.9,0,27.1,12.2,27.1,27.1c0,14.9-12.2,27.1-27.1,27.1c-14.9,0-27.1-12.2-27.1-27.1
					C782.9,15.1,795.1,2.9,810,2.9L810,2.9z M810,1L810,1c-16.1,0-29,13.2-29,29c0,16.1,13,29,29,29c16.1,0,29-13,29-29
					C839,14.1,826.1,1,810,1z"/>
			</g>
			<path class="st8" d="M840,30c0,8.3-3.4,15.8-8.8,21.2c-5.5,5.5-13,8.8-21.2,8.8c-8.3,0-15.8-3.4-21.2-8.8
				c-5.4-5.4-8.8-12.9-8.8-21.2c0-8.2,3.4-15.7,8.8-21.2C794.2,3.4,801.7,0,810,0c8.3,0,15.8,3.4,21.2,8.8
				C836.6,14.3,840,21.8,840,30L840,30z M829.8,49.8L829.8,49.8c5.1-5.1,8.2-12.1,8.2-19.8c0-7.7-3.2-14.7-8.3-19.8
				c-5.1-5.1-12.1-8.2-19.8-8.2c-7.7,0-14.7,3.2-19.8,8.2c-5.1,5.1-8.3,12.1-8.3,19.8c0,7.8,3.1,14.8,8.2,19.9
				c5.1,5.1,12.1,8.2,19.9,8.2C817.7,58.1,824.7,54.9,829.8,49.8z"/>
		</g>
	</g>
</g>
<g id="_x23_Layer_1_24_">
</g>
<g id="_x23_Layer_1_25_">
</g>
<g id="_x23_Layer_1_26_">
</g>
</svg>
