<?xml version="1.0" encoding="utf-8"?>
<!-- Generator: Adobe Illustrator 18.1.1, SVG Export Plug-In . SVG Version: 6.00 Build 0)  -->
<svg version="1.1" xmlns="http://www.w3.org/2000/svg" xmlns:xlink="http://www.w3.org/1999/xlink" x="0px" y="0px" width="190px"
	 height="190px" viewBox="0 0 190 190" style="enable-background:new 0 0 190 190;" xml:space="preserve">
<style type="text/css">
	.st0{fill-rule:evenodd;clip-rule:evenodd;fill:#DF2E2D;}
	.st1{fill-rule:evenodd;clip-rule:evenodd;fill:#D1D1D1;}
	.st2{fill-rule:evenodd;clip-rule:evenodd;fill:none;}
	.st3{fill:#E02E2D;}
	.st4{fill:#D2D2D2;}
	.st5{fill:#FFFFFF;}
	.st6{fill:none;}
	.st7{fill-rule:evenodd;clip-rule:evenodd;fill:#8E8E8E;}
	.st8{fill-rule:evenodd;clip-rule:evenodd;fill:#FFFFFF;}
	.st9{fill-rule:evenodd;clip-rule:evenodd;fill:#C7C7C7;}
	.st10{fill-rule:evenodd;clip-rule:evenodd;fill:#D51723;}
	.st11{fill-rule:evenodd;clip-rule:evenodd;fill:#7B7B7B;}
	.st12{fill-rule:evenodd;clip-rule:evenodd;fill:#F4F4F4;}
	.st13{fill-rule:evenodd;clip-rule:evenodd;fill:#404040;}
	.st14{fill-rule:evenodd;clip-rule:evenodd;fill:none;stroke:#7B7B7B;stroke-width:1.0366;stroke-miterlimit:22.9256;}
</style>
<g id="_x23_Layer_1">
</g>
<g id="_x23_Layer_1_1_">
</g>
<g id="Layer_1">
</g>
<g id="_x23_Layer_1_2_">
</g>
<g id="_x23_Layer_1_3_">
	<g>
		<rect x="-190" y="0" class="st2" width="190" height="190"/>
	</g>
</g>
<g id="_x23_Layer_1_4_">
	<g>
		<rect x="0" y="0" class="st2" width="190" height="190"/>
		<g>
			<g>
				<g>
					<g>
						<g>
							<path class="st7" d="M94.8,29.4c5.8,0,10.6,4.8,10.6,10.6s-4.8,10.6-10.6,10.6c-5.8,0-10.6-4.8-10.6-10.6
								C84.2,34,89,29.4,94.8,29.4L94.8,29.4z M94.8,25.4L94.8,25.4c-8,0-14.6,6.6-14.6,14.6s6.6,14.6,14.6,14.6
								c8,0,14.6-6.6,14.6-14.6S102.8,25.4,94.8,25.4z"/>
						</g>
					</g>
				</g>
				<g>
					<g>
						<path class="st7" d="M99.6,56.4c7.8,0,13,4.2,14.8,9.4l9,29.8c1.2,3.8-1,6.2-3.4,6.2c-1.6,0-3.2-1-4-3.4L106.4,71h-1
							c0,0,12.6,49,13.2,50.8c0.2,1-0.2,1.6-1,1.6c-0.6,0-10.8,0-10.8,0v32.2c0,3.2-2.4,4.8-4.8,4.8s-4.8-1.6-4.8-4.8v-32.4h-3.8
							v32.4c0,3.2-2.4,4.8-4.8,4.8s-4.8-1.6-4.8-4.8v-32.2c0,0-10.4,0-10.8,0c-1,0-1.4-0.6-1-1.6C72.6,120,85.2,71,85.2,71H84
							l-9.6,27.4c-0.8,2.4-2.4,3.4-4,3.4c-2.4,0-4.6-2.4-3.4-6.2l9-29.8c1.8-5.2,7-9.4,14.8-9.4H99.6L99.6,56.4z M99.6,52.6
							L99.6,52.6h-9.8c-8.8,0-16,4.8-18.4,12.2c0,0,0,0,0,0.2l-9,29.8c-1,3.2-0.4,6,1.2,8.2c1.4,2,3.6,3,6,3c0.6,0,1.2,0,1.8-0.2
							c-2.2,8.4-3.8,14.4-4,15.2c-0.4,1.6-0.2,3.4,0.8,4.6c1,1.2,2.4,2,4.2,2l7,0v28.2c0,5,3.8,8.8,8.8,8.8c2.8,0,5.2-1.2,6.8-3
							c1.6,1.8,4,3,6.8,3c5,0,8.8-3.8,8.8-8.8v-28.2h7c1.6,0,3.2-0.8,4.2-2c1-1.2,1.2-3,0.8-4.6c-0.2-0.6-1.8-6.8-4-15.2
							c0.6,0.2,1.2,0.2,1.8,0.2c2.4,0,4.6-1.2,6-3c1.6-2.2,2-5.2,1.2-8.2l-9-30c0,0,0,0,0-0.2C115.6,57.2,108.4,52.6,99.6,52.6z"/>
					</g>
				</g>
			</g>
		</g>
	</g>
</g>
<g id="_x23_Layer_1_5_">
	<g>
		<rect x="190" y="0" class="st2" width="190" height="190"/>
	</g>
</g>
<g id="_x23_Layer_1_6_">
</g>
<g id="_x23_Layer_1_7_">
</g>
<g id="_x23_Layer_1_8_">
</g>
<g id="_x23_Layer_1_9_">
</g>
<g id="_x23_Layer_1_10_">
</g>
<g id="_x23_Layer_1_11_">
</g>
<g id="_x23_Layer_1_12_">
</g>
<g id="_x23_Layer_1_13_">
</g>
<g id="_x23_Layer_1_14_">
</g>
<g id="_x23_Layer_1_15_">
</g>
<g id="_x23_Layer_1_16_">
</g>
<g id="_x23_Layer_1_17_">
</g>
<g id="_x23_Layer_1_18_">
</g>
<g id="_x23_Layer_1_19_">
</g>
<g id="_x23_Layer_1_20_">
</g>
<g id="_x23_Layer_1_21_">
</g>
<g id="_x23_Layer_1_22_">
</g>
<g id="_x23_Layer_1_23_">
</g>
<g id="_x23_Layer_1_24_">
</g>
<g id="_x23_Layer_1_25_">
</g>
<g id="_x23_Layer_1_26_">
</g>
</svg>
