<?xml version="1.0" encoding="utf-8"?>
<!-- Generator: Adobe Illustrator 18.1.1, SVG Export Plug-In . SVG Version: 6.00 Build 0)  -->
<svg version="1.1" xmlns="http://www.w3.org/2000/svg" xmlns:xlink="http://www.w3.org/1999/xlink" x="0px" y="0px" width="190px"
	 height="190px" viewBox="0 0 190 190" style="enable-background:new 0 0 190 190;" xml:space="preserve">
<style type="text/css">
	.st0{fill-rule:evenodd;clip-rule:evenodd;fill:#DF2E2D;}
	.st1{fill-rule:evenodd;clip-rule:evenodd;fill:#D1D1D1;}
	.st2{fill-rule:evenodd;clip-rule:evenodd;fill:none;}
	.st3{fill:#E02E2D;}
	.st4{fill:#D2D2D2;}
	.st5{fill:#FFFFFF;}
	.st6{fill:none;}
	.st7{fill-rule:evenodd;clip-rule:evenodd;fill:#8E8E8E;}
	.st8{fill-rule:evenodd;clip-rule:evenodd;fill:#FFFFFF;}
	.st9{fill-rule:evenodd;clip-rule:evenodd;fill:#C7C7C7;}
	.st10{fill-rule:evenodd;clip-rule:evenodd;fill:#D51723;}
	.st11{fill-rule:evenodd;clip-rule:evenodd;fill:#7B7B7B;}
	.st12{fill-rule:evenodd;clip-rule:evenodd;fill:#F4F4F4;}
	.st13{fill-rule:evenodd;clip-rule:evenodd;fill:#404040;}
	.st14{fill-rule:evenodd;clip-rule:evenodd;fill:none;stroke:#7B7B7B;stroke-width:1.0366;stroke-miterlimit:22.9256;}
</style>
<g id="_x23_Layer_1">
</g>
<g id="_x23_Layer_1_1_">
</g>
<g id="Layer_1">
</g>
<g id="_x23_Layer_1_2_">
</g>
<g id="_x23_Layer_1_3_">
</g>
<g id="_x23_Layer_1_4_">
</g>
<g id="_x23_Layer_1_5_">
</g>
<g id="_x23_Layer_1_6_">
</g>
<g id="_x23_Layer_1_7_">
	<g>
		<rect x="-190" y="0" class="st2" width="190" height="190"/>
	</g>
</g>
<g id="_x23_Layer_1_8_">
	<g>
		<rect x="0" y="0" class="st2" width="190" height="190"/>
		<g>
			<g>
				<path class="st7" d="M95,29.4c-36.2,0-65.6,29.4-65.6,65.6s29.4,65.6,65.6,65.6c36.2,0,65.6-29.4,65.6-65.6S131.2,29.4,95,29.4
					L95,29.4z M143,57.6L143,57.6c-11.4-6.4-23.4-8.8-30.4-9.8c3.4-2.6,7-4.8,10.8-6.6C131,45.2,137.6,50.8,143,57.6L143,57.6z
					 M95,34.2L95,34.2c8,0,15.8,1.6,22.8,4.4c-5.6,3-10.8,6.8-15,11.6C86.6,68.2,82.6,94.4,82,99.4c-1.6,1.2-5.4,4-10.8,7.2
					c-1.2-7-4.2-29.8,4-48.8c4-9.4,11.8-17.4,19.4-23.6C94.8,34.2,94.8,34.2,95,34.2L95,34.2z M84.4,100.4L84.4,100.4l-34.2-35
					C52,58,56,51,60.4,44.8c7.6-5.2,16.4-8.8,26-10.2c-6.2,5.8-12.2,12.8-15.6,21c-9.6,22.2-5,48.2-4,53.2
					c-3.6,1.8-7.8,3.8-12.2,5.4c-2.4-6.6-9.2-28.6-4.4-48.8L84.4,100.4L84.4,100.4z M34.2,95L34.2,95c0-15,5.4-28.6,14.4-39.2
					c-1.2,2.8-2.2,5.6-3,8.4c-5.2,21.4,1.8,44.2,4.4,51.4c-3.6,1-7.4,1.8-11.2,2.2C35.8,110.8,34.2,103,34.2,95L34.2,95z
					 M40.8,122.4L40.8,122.4c22-3,40.8-16.6,44.4-19.6c2.4,0.4,9,1.4,17,4c-3.8,5.4-18,24.2-37.6,32c-2.8,1.2-5.8,2-8.8,2.4
					C49.6,136.2,44.6,129.8,40.8,122.4L40.8,122.4z M82.6,154.4L82.6,154.4c-8-1.6-15.4-4.8-21.8-9.4c2-0.4,3.8-1,5.6-1.8
					c22.8-9,38-31,40.6-34.8c6.6,2.4,14,6,20.4,10.8l-0.2-0.2c-0.2,0.2-15.6,24.4-38.6,33.6C86.6,153.4,84.6,154,82.6,154.4
					L82.6,154.4z M95,155.8L95,155.8c-0.6,0-1,0-1.6,0c21.2-9.8,35.4-30.2,37.6-33.6c0.2,0.2,0.4,0.2,0.4,0.4c3.8,3.4,7,7.6,9.6,12
					C130,147.4,113.4,155.8,95,155.8L95,155.8z M144.2,130.6L144.2,130.6c-2.6-4.2-5.8-8.2-9.6-11.6C118,104,94.4,99.6,87,98.4
					c0.6-4,2.4-13,6.2-22.6C99.6,76,117.4,77.4,132,87c9.6,6.2,16.8,16.4,21.4,24.6C151.6,118.4,148.4,124.8,144.2,130.6
					L144.2,130.6z M134.6,82.8L134.6,82.8C120,73.4,103.2,71.4,95.2,71c2.8-6,6.4-12.2,11.2-17.6c0.4-0.4,0.8-1,1.2-1.4
					c4.8,0.4,24.2,2.4,39.4,13.6c0.8,0.6,1.6,1.2,2.2,1.8c4.2,8.2,6.6,17.4,6.6,27.4c0,3.2-0.2,6.6-0.8,9.6
					C150.2,97,143.4,88.6,134.6,82.8z"/>
			</g>
		</g>
	</g>
</g>
<g id="_x23_Layer_1_9_">
	<g>
		<rect x="190" y="0" class="st2" width="190" height="190"/>
	</g>
</g>
<g id="_x23_Layer_1_10_">
</g>
<g id="_x23_Layer_1_11_">
</g>
<g id="_x23_Layer_1_12_">
</g>
<g id="_x23_Layer_1_13_">
</g>
<g id="_x23_Layer_1_14_">
</g>
<g id="_x23_Layer_1_15_">
</g>
<g id="_x23_Layer_1_16_">
</g>
<g id="_x23_Layer_1_17_">
</g>
<g id="_x23_Layer_1_18_">
</g>
<g id="_x23_Layer_1_19_">
</g>
<g id="_x23_Layer_1_20_">
</g>
<g id="_x23_Layer_1_21_">
</g>
<g id="_x23_Layer_1_22_">
</g>
<g id="_x23_Layer_1_23_">
</g>
<g id="_x23_Layer_1_24_">
</g>
<g id="_x23_Layer_1_25_">
</g>
<g id="_x23_Layer_1_26_">
</g>
</svg>
