<?xml version="1.0" encoding="utf-8"?>
<!-- Generator: Adobe Illustrator 18.1.1, SVG Export Plug-In . SVG Version: 6.00 Build 0)  -->
<svg version="1.1" xmlns="http://www.w3.org/2000/svg" xmlns:xlink="http://www.w3.org/1999/xlink" x="0px" y="0px" width="190px"
	 height="190px" viewBox="0 0 190 190" style="enable-background:new 0 0 190 190;" xml:space="preserve">
<style type="text/css">
	.st0{fill-rule:evenodd;clip-rule:evenodd;fill:#DF2E2D;}
	.st1{fill-rule:evenodd;clip-rule:evenodd;fill:#D1D1D1;}
	.st2{fill-rule:evenodd;clip-rule:evenodd;fill:none;}
	.st3{fill:#E02E2D;}
	.st4{fill:#D2D2D2;}
	.st5{fill:#FFFFFF;}
	.st6{fill:none;}
	.st7{fill-rule:evenodd;clip-rule:evenodd;fill:#8E8E8E;}
	.st8{fill-rule:evenodd;clip-rule:evenodd;fill:#FFFFFF;}
	.st9{fill-rule:evenodd;clip-rule:evenodd;fill:#C7C7C7;}
	.st10{fill-rule:evenodd;clip-rule:evenodd;fill:#D51723;}
	.st11{fill-rule:evenodd;clip-rule:evenodd;fill:#7B7B7B;}
	.st12{fill-rule:evenodd;clip-rule:evenodd;fill:#F4F4F4;}
	.st13{fill-rule:evenodd;clip-rule:evenodd;fill:#404040;}
	.st14{fill-rule:evenodd;clip-rule:evenodd;fill:none;stroke:#7B7B7B;stroke-width:1.0366;stroke-miterlimit:22.9256;}
</style>
<g id="_x23_Layer_1">
</g>
<g id="_x23_Layer_1_1_">
</g>
<g id="Layer_1">
</g>
<g id="_x23_Layer_1_2_">
</g>
<g id="_x23_Layer_1_3_">
</g>
<g id="_x23_Layer_1_4_">
</g>
<g id="_x23_Layer_1_5_">
	<g>
		<rect x="-190" y="0" class="st2" width="190" height="190"/>
	</g>
</g>
<g id="_x23_Layer_1_6_">
	<g>
		<rect x="0" y="0" class="st2" width="190" height="190"/>
		<g>
			<g>
				<polygon class="st7" points="125,61.3 119,67.1 115,63.1 111.2,66.9 115.2,70.9 109.4,76.7 105.4,72.7 101.6,76.5 105.6,80.5 
					99.8,86.3 95.8,82.3 92,86.1 96,90.3 90.2,95.9 86.2,91.9 82.2,95.7 86.4,99.9 80.6,105.7 76.6,101.5 72.6,105.5 76.8,109.5 
					71,115.3 66.8,111.1 63,115.1 67,119.1 61.2,124.9 65,128.9 71,122.9 75.2,127.3 79,123.3 74.8,119.1 80.6,113.3 84.8,117.7 
					88.8,113.7 84.4,109.5 90.2,103.7 94.4,107.9 98.4,104.1 94,99.9 99.8,94.1 104.2,98.3 108,94.5 103.6,90.3 109.4,84.5 
					113.8,88.7 117.6,84.9 113.4,80.5 119,74.9 123.4,79.1 127.2,75.3 123,70.9 128.8,65.1 				"/>
				<path class="st7" d="M149.8,40.3c-7-7-17-10.8-28.6-10.8c-20.2,0-43.4,11-62,29.6C44.8,73.5,34.8,90.9,31,107.7
					c-3.8,17.4-0.4,32.2,9.2,42c7,7,17,10.8,28.6,10.8l0,0c20.2,0,43.4-11,62-29.6c14.4-14.4,24.4-31.8,28.2-48.6
					C162.8,64.9,159.6,49.9,149.8,40.3L149.8,40.3z M153.8,81.1L153.8,81.1c-3.4,16-13,32.2-26.8,46c-17.6,17.6-39.4,28.2-58.4,28.2
					c-9.2,0-17-2.6-22.8-7.4L60,133.7l-3.8-3.8L42,144.1c-7-8.4-9.2-20.8-6-35.2c3.4-16,13-32.2,26.8-46
					c17.6-17.6,39.4-28.2,58.4-28.2c9.2,0,17,2.6,23,7.4L130,56.3l3.8,3.8L148,45.9C154.8,54.3,157,66.7,153.8,81.1z"/>
			</g>
		</g>
	</g>
</g>
<g id="_x23_Layer_1_7_">
	<g>
		<rect x="190" y="0" class="st2" width="190" height="190"/>
	</g>
</g>
<g id="_x23_Layer_1_8_">
</g>
<g id="_x23_Layer_1_9_">
</g>
<g id="_x23_Layer_1_10_">
</g>
<g id="_x23_Layer_1_11_">
</g>
<g id="_x23_Layer_1_12_">
</g>
<g id="_x23_Layer_1_13_">
</g>
<g id="_x23_Layer_1_14_">
</g>
<g id="_x23_Layer_1_15_">
</g>
<g id="_x23_Layer_1_16_">
</g>
<g id="_x23_Layer_1_17_">
</g>
<g id="_x23_Layer_1_18_">
</g>
<g id="_x23_Layer_1_19_">
</g>
<g id="_x23_Layer_1_20_">
</g>
<g id="_x23_Layer_1_21_">
</g>
<g id="_x23_Layer_1_22_">
</g>
<g id="_x23_Layer_1_23_">
</g>
<g id="_x23_Layer_1_24_">
</g>
<g id="_x23_Layer_1_25_">
</g>
<g id="_x23_Layer_1_26_">
</g>
</svg>
