<?xml version="1.0" encoding="utf-8"?>
<!-- Generator: Adobe Illustrator 18.1.1, SVG Export Plug-In . SVG Version: 6.00 Build 0)  -->
<svg version="1.1" xmlns="http://www.w3.org/2000/svg" xmlns:xlink="http://www.w3.org/1999/xlink" x="0px" y="0px" width="190px"
	 height="190px" viewBox="0 0 190 190" style="enable-background:new 0 0 190 190;" xml:space="preserve">
<style type="text/css">
	.st0{fill-rule:evenodd;clip-rule:evenodd;fill:#DF2E2D;}
	.st1{fill-rule:evenodd;clip-rule:evenodd;fill:#D1D1D1;}
	.st2{fill-rule:evenodd;clip-rule:evenodd;fill:none;}
	.st3{fill:#E02E2D;}
	.st4{fill:#D2D2D2;}
	.st5{fill:#FFFFFF;}
	.st6{fill:none;}
	.st7{fill-rule:evenodd;clip-rule:evenodd;fill:#8E8E8E;}
	.st8{fill-rule:evenodd;clip-rule:evenodd;fill:#FFFFFF;}
	.st9{fill-rule:evenodd;clip-rule:evenodd;fill:#C7C7C7;}
	.st10{fill-rule:evenodd;clip-rule:evenodd;fill:#D51723;}
	.st11{fill-rule:evenodd;clip-rule:evenodd;fill:#7B7B7B;}
	.st12{fill-rule:evenodd;clip-rule:evenodd;fill:#F4F4F4;}
	.st13{fill-rule:evenodd;clip-rule:evenodd;fill:#404040;}
	.st14{fill-rule:evenodd;clip-rule:evenodd;fill:none;stroke:#7B7B7B;stroke-width:1.0366;stroke-miterlimit:22.9256;}
</style>
<g id="_x23_Layer_1">
</g>
<g id="_x23_Layer_1_1_">
</g>
<g id="Layer_1">
</g>
<g id="_x23_Layer_1_2_">
</g>
<g id="_x23_Layer_1_3_">
</g>
<g id="_x23_Layer_1_4_">
</g>
<g id="_x23_Layer_1_5_">
</g>
<g id="_x23_Layer_1_6_">
	<g>
		<rect x="-190" y="0" class="st2" width="190" height="190"/>
	</g>
</g>
<g id="_x23_Layer_1_7_">
	<g>
		<rect x="0" y="0" class="st2" width="190" height="190"/>
		<g>
			<g>
				<path class="st7" d="M160.4,71.1c0,0-19.8-41.6-65.4-41.6S29.4,71.1,29.4,71.1v50c0,0,18.2,3.6,36.2,6.4l3.2,33l4.8-0.4
					l-0.2-1.4h43.2l-0.2,1.4l4.8,0.4l3.2-33c18-2.8,36.2-6.4,36.2-6.4L160.4,71.1L160.4,71.1z M69.2,114.9L69.2,114.9l7.6,6.8
					l-6.4,6.4L69.2,114.9L69.2,114.9z M103,117.9L103,117.9l-7.4-7h14.8L103,117.9L103,117.9z M103,124.5L103,124.5l7.4,7l-7.6,7.2
					l-7.6-6.8L103,124.5L103,124.5z M99.6,121.1L99.6,121.1l-7.8,7.6l-8-7.2l7.8-7.8L99.6,121.1L99.6,121.1z M88.4,132.1L88.4,132.1
					l-8,7.8l-7.6-7.2l7.6-7.6L88.4,132.1L88.4,132.1z M80.2,118.3L80.2,118.3l-8.4-7.6h16L80.2,118.3L80.2,118.3z M71.4,137.9
					L71.4,137.9l5.6,5.2l-4.6,4.4L71.4,137.9L71.4,137.9z M73,154.1L73,154.1v-0.4l7.4-7.2l8,7.6H73L73,154.1z M83.8,143.1
					L83.8,143.1l8-7.8l7.6,6.8l-8.4,8L83.8,143.1L83.8,143.1z M95.4,154.1L95.4,154.1l-0.6-0.6l8.4-8.2l9.8,8.8H95.4L95.4,154.1z
					 M117.2,151.5L117.2,151.5l-10.8-9.6l7.4-7.2l4.4,4.2L117.2,151.5L117.2,151.5z M119,133.1L119,133.1l-1.6-1.6l2-1.8L119,133.1
					L119,133.1z M120,122.3L120,122.3l-6.2,5.8l-7.4-7l10.6-10.4h4L120,122.3L120,122.3z M124.8,122.7L124.8,122.7l1.2-11.8h5.2
					v-4.8H59v4.8h5.2l1.2,11.8c-12.6-2-25-4.2-31-5.4v-45c3.2-6,22.2-38,60.8-38c38.8,0,57.4,32,60.6,38l0.2,45
					C149.8,118.3,137.2,120.7,124.8,122.7z"/>
				<polygon class="st7" points="64.2,99.7 69,99.7 69,66.3 121.2,66.3 121.2,99.7 126,99.7 126,61.7 64.2,61.7 				"/>
			</g>
		</g>
	</g>
</g>
<g id="_x23_Layer_1_8_">
	<g>
		<rect x="190" y="0" class="st2" width="190" height="190"/>
	</g>
</g>
<g id="_x23_Layer_1_9_">
</g>
<g id="_x23_Layer_1_10_">
</g>
<g id="_x23_Layer_1_11_">
</g>
<g id="_x23_Layer_1_12_">
</g>
<g id="_x23_Layer_1_13_">
</g>
<g id="_x23_Layer_1_14_">
</g>
<g id="_x23_Layer_1_15_">
</g>
<g id="_x23_Layer_1_16_">
</g>
<g id="_x23_Layer_1_17_">
</g>
<g id="_x23_Layer_1_18_">
</g>
<g id="_x23_Layer_1_19_">
</g>
<g id="_x23_Layer_1_20_">
</g>
<g id="_x23_Layer_1_21_">
</g>
<g id="_x23_Layer_1_22_">
</g>
<g id="_x23_Layer_1_23_">
</g>
<g id="_x23_Layer_1_24_">
</g>
<g id="_x23_Layer_1_25_">
</g>
<g id="_x23_Layer_1_26_">
</g>
</svg>
