<?xml version="1.0" encoding="utf-8"?>
<!-- Generator: Adobe Illustrator 18.1.1, SVG Export Plug-In . SVG Version: 6.00 Build 0)  -->
<svg version="1.1" xmlns="http://www.w3.org/2000/svg" xmlns:xlink="http://www.w3.org/1999/xlink" x="0px" y="0px" width="190px"
	 height="190px" viewBox="0 0 190 190" style="enable-background:new 0 0 190 190;" xml:space="preserve">
<style type="text/css">
	.st0{fill-rule:evenodd;clip-rule:evenodd;fill:#DF2E2D;}
	.st1{fill-rule:evenodd;clip-rule:evenodd;fill:#D1D1D1;}
	.st2{fill-rule:evenodd;clip-rule:evenodd;fill:none;}
	.st3{fill:#E02E2D;}
	.st4{fill:#D2D2D2;}
	.st5{fill:#FFFFFF;}
	.st6{fill:none;}
	.st7{fill-rule:evenodd;clip-rule:evenodd;fill:#8E8E8E;}
	.st8{fill-rule:evenodd;clip-rule:evenodd;fill:#FFFFFF;}
	.st9{fill-rule:evenodd;clip-rule:evenodd;fill:#C7C7C7;}
	.st10{fill-rule:evenodd;clip-rule:evenodd;fill:#D51723;}
	.st11{fill-rule:evenodd;clip-rule:evenodd;fill:#7B7B7B;}
	.st12{fill-rule:evenodd;clip-rule:evenodd;fill:#F4F4F4;}
	.st13{fill-rule:evenodd;clip-rule:evenodd;fill:#404040;}
	.st14{fill-rule:evenodd;clip-rule:evenodd;fill:none;stroke:#7B7B7B;stroke-width:1.0366;stroke-miterlimit:22.9256;}
</style>
<g id="_x23_Layer_1">
</g>
<g id="_x23_Layer_1_1_">
</g>
<g id="Layer_1">
</g>
<g id="_x23_Layer_1_2_">
</g>
<g id="_x23_Layer_1_3_">
</g>
<g id="_x23_Layer_1_4_">
	<g>
		<rect x="-190" y="0" class="st2" width="190" height="190"/>
	</g>
</g>
<g id="_x23_Layer_1_5_">
	<g>
		<rect x="0" y="0" class="st2" width="190" height="190"/>
		<g>
			<g>
				<path class="st7" d="M159.1,61.3L95.7,36.9c-0.6-0.2-1.2-0.2-1.6,0L30.9,61.3c-0.8,0.4-1.4,1.2-1.4,2.2s0.6,1.8,1.4,2.2
					l19.8,8.4v36.8h2.4c0.2,0,17.8-0.6,40.6,16.8l1.4,1l1.4-1.2c9-7.2,17.2-11,24.2-13l-3.6,36.4c-0.2,1.2,0.8,2.4,2,2.4
					c1.2,0.2,2.4-0.8,2.4-2l3.4-34.4l3.8,34.4c0.2,1.2,1.2,2,2.2,2h0.2c1.2-0.2,2.2-1.2,2-2.6l-4.2-38c5.2-0.8,8.4-0.2,8.6-0.2
					l2.6,0.4v-39h-0.6l19.6-8.2c0.8-0.4,1.4-1.2,1.4-2.2S159.9,61.7,159.1,61.3L159.1,61.3z M94.9,122.7L94.9,122.7
					c-18.8-14-34-16.4-39.6-16.6V75.9l39,16.4c0.2,0.2,0.6,0.2,0.8,0.2c0.4,0,0.6,0,0.8-0.2l26.4-11.2v12.6l-1.4,15.6
					C113.5,111.5,104.5,115.3,94.9,122.7L94.9,122.7z M135.5,107.7L135.5,107.7c-1.6,0-4.2,0-7.2,0.4l-1.6-14.2V79.3l8.6-3.6
					L135.5,107.7L135.5,107.7z M125.3,74.9L125.3,74.9l-26.6-12c-0.8-0.8-2.2-1.2-4-1.2c-2.6,0-4.6,1-4.6,2.2s2,2.2,4.6,2.2
					c0.2,0,0.2,0,0.2,0l24.6,11L95.1,87.5L37.9,63.3l57-21.8l57.2,22.2L125.3,74.9z"/>
			</g>
		</g>
	</g>
</g>
<g id="_x23_Layer_1_6_">
	<g>
		<rect x="190" y="0" class="st2" width="190" height="190"/>
	</g>
</g>
<g id="_x23_Layer_1_7_">
</g>
<g id="_x23_Layer_1_8_">
</g>
<g id="_x23_Layer_1_9_">
</g>
<g id="_x23_Layer_1_10_">
</g>
<g id="_x23_Layer_1_11_">
</g>
<g id="_x23_Layer_1_12_">
</g>
<g id="_x23_Layer_1_13_">
</g>
<g id="_x23_Layer_1_14_">
</g>
<g id="_x23_Layer_1_15_">
</g>
<g id="_x23_Layer_1_16_">
</g>
<g id="_x23_Layer_1_17_">
</g>
<g id="_x23_Layer_1_18_">
</g>
<g id="_x23_Layer_1_19_">
</g>
<g id="_x23_Layer_1_20_">
</g>
<g id="_x23_Layer_1_21_">
</g>
<g id="_x23_Layer_1_22_">
</g>
<g id="_x23_Layer_1_23_">
</g>
<g id="_x23_Layer_1_24_">
</g>
<g id="_x23_Layer_1_25_">
</g>
<g id="_x23_Layer_1_26_">
</g>
</svg>
