<?xml version="1.0" encoding="utf-8"?>
<!-- Generator: Adobe Illustrator 18.1.1, SVG Export Plug-In . SVG Version: 6.00 Build 0)  -->
<svg version="1.1" xmlns="http://www.w3.org/2000/svg" xmlns:xlink="http://www.w3.org/1999/xlink" x="0px" y="0px" width="190px"
	 height="190px" viewBox="0 0 190 190" style="enable-background:new 0 0 190 190;" xml:space="preserve">
<style type="text/css">
	.st0{fill-rule:evenodd;clip-rule:evenodd;fill:#DF2E2D;}
	.st1{fill-rule:evenodd;clip-rule:evenodd;fill:#D1D1D1;}
	.st2{fill-rule:evenodd;clip-rule:evenodd;fill:none;}
	.st3{fill:#E02E2D;}
	.st4{fill:#D2D2D2;}
	.st5{fill:#FFFFFF;}
	.st6{fill:none;}
	.st7{fill-rule:evenodd;clip-rule:evenodd;fill:#8E8E8E;}
	.st8{fill-rule:evenodd;clip-rule:evenodd;fill:#FFFFFF;}
	.st9{fill-rule:evenodd;clip-rule:evenodd;fill:#C7C7C7;}
	.st10{fill-rule:evenodd;clip-rule:evenodd;fill:#D51723;}
	.st11{fill-rule:evenodd;clip-rule:evenodd;fill:#7B7B7B;}
	.st12{fill-rule:evenodd;clip-rule:evenodd;fill:#F4F4F4;}
	.st13{fill-rule:evenodd;clip-rule:evenodd;fill:#404040;}
	.st14{fill-rule:evenodd;clip-rule:evenodd;fill:none;stroke:#7B7B7B;stroke-width:1.0366;stroke-miterlimit:22.9256;}
</style>
<g id="_x23_Layer_1">
</g>
<g id="_x23_Layer_1_1_">
</g>
<g id="Layer_1">
</g>
<g id="_x23_Layer_1_2_">
</g>
<g id="_x23_Layer_1_3_">
	<g>
		<g>
			<g>
				<g>
					<g>
						<g>
							<path class="st7" d="M120,22.8c6.4,0,11.6,5.2,11.6,11.6c0,6.4-5.2,11.6-11.6,11.6s-11.6-5.2-11.6-11.6
								C108.4,28,113.6,22.8,120,22.8L120,22.8z M120,18.8L120,18.8c-8.6,0-15.6,7-15.6,15.6c0,8.6,7,15.6,15.6,15.6
								s15.6-7,15.6-15.6C135.6,25.8,128.6,18.8,120,18.8z"/>
						</g>
					</g>
				</g>
				<g>
					<g>
						<path class="st7" d="M132.6,52.6c11.2,0,14.8,2.8,14.8,15.2v35.8c0,3.4-2.4,5.2-4.6,5.2c-2.2,0-4.6-1.8-4.6-5.2L137.4,71H135
							v89.6c0,4.6-3.2,6.8-6.2,6.8c-3.2,0-6.4-2.4-6.4-6.8l-0.8-52H119l-0.8,52c0,4.6-3.2,6.8-6.4,6.8c-3.2,0-6.2-2.2-6.2-6.8v-90
							h-2.4l-0.8,32.6c0,3.4-2.4,5.2-4.6,5.2c-2.2,0-4.6-1.8-4.6-5.2V67.6c0-12.2,3.6-15.2,14.8-15.2h12.6L132.6,52.6L132.6,52.6z
							 M132.6,48.6L132.6,48.6L132.6,48.6H120h-12.6c-13.8,0-18.8,5-18.8,19v35.8c0,6,4.4,9.2,8.6,9.2c1.4,0,2.8-0.4,4-1v48.6
							c0,7,5.2,10.8,10.2,10.8c3.2,0,6.6-1.6,8.6-4.4c2,2.8,5.4,4.4,8.6,4.4c5,0,10.2-3.8,10.2-10.8v-48.6c1.2,0.6,2.6,1,4,1
							c4.2,0,8.6-3.2,8.6-9.2V67.6C151.4,53.6,146.4,48.6,132.6,48.6z"/>
					</g>
				</g>
				<g>
					<g>
						<g>
							<path class="st7" d="M61.8,64.8c4.4,0,8.2,3.6,8.2,8.2c0,4.4-3.6,8.2-8.2,8.2c-4.4,0-8.2-3.6-8.2-8.2
								C53.6,68.4,57.2,64.8,61.8,64.8L61.8,64.8z M61.8,60.8L61.8,60.8c-6.6,0-12,5.4-12,12s5.4,12,12,12s12-5.4,12-12
								C73.8,66.4,68.4,60.8,61.8,60.8z"/>
						</g>
					</g>
				</g>
				<g>
					<g>
						<path class="st7" d="M70.6,86.8c7.8,0,10.4,2,10.4,10.6v25c0,2.4-1.6,3.6-3.2,3.6c-1.6,0-3.2-1.2-3.2-3.6L74,99.6h-1.6v62.6
							c0,3.2-2.2,4.8-4.4,4.8c-2.2,0-4.6-1.6-4.6-4.8l-0.6-36.4H61l-0.6,36.4c0,3.2-2.2,4.8-4.6,4.8c-2.2,0-4.4-1.6-4.4-4.8l0-62.6
							h-1.6l-0.6,22.8c0,2.4-1.6,3.6-3.2,3.6c-1.6,0-3.2-1.2-3.2-3.6v-25c0-8.6,2.6-10.6,10.4-10.6H62H70.6L70.6,86.8z M70.6,83
							L70.6,83L70.6,83h-8.8H53c-10.4,0-14.4,4-14.4,14.6v25c0,4.4,3.2,7.6,7.2,7.6c0.6,0,1,0,1.6-0.2v32.4c0,5.6,4.2,8.8,8.4,8.8
							c2.2,0,4.4-0.8,6-2.4c1.6,1.6,3.8,2.4,6,2.4c4,0,8.4-3,8.4-8.8l0-32.4c0.6,0.2,1,0.2,1.6,0.2c4.2,0,7.2-3.2,7.2-7.6V97.4
							C84.8,87,80.8,83,70.6,83z"/>
					</g>
				</g>
			</g>
		</g>
		<rect x="0" y="0" class="st2" width="190" height="190"/>
	</g>
</g>
<g id="_x23_Layer_1_4_">
	<g>
		<rect x="190" y="0" class="st2" width="190" height="190"/>
	</g>
</g>
<g id="_x23_Layer_1_5_">
</g>
<g id="_x23_Layer_1_6_">
</g>
<g id="_x23_Layer_1_7_">
</g>
<g id="_x23_Layer_1_8_">
</g>
<g id="_x23_Layer_1_9_">
</g>
<g id="_x23_Layer_1_10_">
</g>
<g id="_x23_Layer_1_11_">
</g>
<g id="_x23_Layer_1_12_">
</g>
<g id="_x23_Layer_1_13_">
</g>
<g id="_x23_Layer_1_14_">
</g>
<g id="_x23_Layer_1_15_">
</g>
<g id="_x23_Layer_1_16_">
</g>
<g id="_x23_Layer_1_17_">
</g>
<g id="_x23_Layer_1_18_">
</g>
<g id="_x23_Layer_1_19_">
</g>
<g id="_x23_Layer_1_20_">
</g>
<g id="_x23_Layer_1_21_">
</g>
<g id="_x23_Layer_1_22_">
</g>
<g id="_x23_Layer_1_23_">
</g>
<g id="_x23_Layer_1_24_">
</g>
<g id="_x23_Layer_1_25_">
</g>
<g id="_x23_Layer_1_26_">
</g>
</svg>
