<?xml version="1.0" encoding="utf-8"?>
<!-- Generator: Adobe Illustrator 18.1.1, SVG Export Plug-In . SVG Version: 6.00 Build 0)  -->
<svg version="1.1" xmlns="http://www.w3.org/2000/svg" xmlns:xlink="http://www.w3.org/1999/xlink" x="0px" y="0px" width="60px"
	 height="60px" viewBox="0 0 60 60" style="enable-background:new 0 0 60 60;" xml:space="preserve">
<style type="text/css">
	.st5{fill:#E02E2D;}
	.st3{fill:#FFFFFF;}
</style>
<g id="_x23_Layer_1">
	<g>
		<g>
			<g>
				<path class="st3" d="M42,39.5h-7.5c-0.6,0-1-0.4-1-1c0-0.6,0.4-1,1-1H42c3.9,0,7-3.1,7-7c0-2.1-0.9-4-2.5-5.4
					c-1.6-1.3-3.7-1.9-5.7-1.5l-0.7,0.1l-0.4-0.6c-1.5-2.6-4.8-3.9-7.7-3.2l-0.7,0.2l-0.4-0.7c-1.2-2.2-3.6-3.6-6.1-3.6
					c-3.8,0-6.8,3-7,6.7l0,0.8L17,23.6c-3.5,0.5-6,3.4-6,6.9c0,3.9,3.1,7,7,7h7.4c0.6,0,1,0.4,1,1c0,0.6-0.4,1-1,1H18c-5,0-9-4-9-9
					c0-4.2,2.9-7.8,6.9-8.7c0.6-4.5,4.3-7.9,8.9-7.9c3,0,5.8,1.5,7.5,4c3.3-0.5,6.8,0.9,8.8,3.7c2.4-0.3,4.8,0.4,6.7,2
					c2.1,1.7,3.3,4.2,3.3,6.9C51,35.5,47,39.5,42,39.5z"/>
			</g>
			<g>
				<g>
					<path class="st3" d="M36.7,33.8c-0.3,0-0.5-0.1-0.7-0.3l-6-6l-6,6c-0.4,0.4-1,0.4-1.4,0s-0.4-1,0-1.4l7.4-7.4l7.4,7.4
						c0.4,0.4,0.4,1,0,1.4C37.2,33.7,36.9,33.8,36.7,33.8z"/>
				</g>
				<g>
					<path class="st3" d="M30,46.1c-0.6,0-1-0.4-1-1V26.2c0-0.6,0.4-1,1-1c0.6,0,1,0.4,1,1v18.9C31,45.6,30.6,46.1,30,46.1z"/>
				</g>
			</g>
		</g>
	</g>
</g>
</svg>
