<?xml version="1.0" encoding="utf-8"?>
<!-- Generator: Adobe Illustrator 18.1.1, SVG Export Plug-In . SVG Version: 6.00 Build 0)  -->
<svg version="1.1" xmlns="http://www.w3.org/2000/svg" xmlns:xlink="http://www.w3.org/1999/xlink" x="0px" y="0px" width="28px"
	 height="14px" viewBox="0 0 28 14" style="enable-background:new 0 0 28 14;" xml:space="preserve">
<style type="text/css">
	.st0{fill-rule:evenodd;clip-rule:evenodd;fill:#DF2E2D;}
	.st1{fill-rule:evenodd;clip-rule:evenodd;fill:#D1D1D1;}
	.st2{fill-rule:evenodd;clip-rule:evenodd;fill:none;}
	.st3{fill:#E02E2D;}
	.st4{fill:#D2D2D2;}
	.st5{fill:#FFFFFF;}
	.st6{fill:none;}
	.st7{fill-rule:evenodd;clip-rule:evenodd;fill:#8E8E8E;}
	.st8{fill-rule:evenodd;clip-rule:evenodd;fill:#FFFFFF;}
	.st9{fill-rule:evenodd;clip-rule:evenodd;fill:#C7C7C7;}
	.st10{fill-rule:evenodd;clip-rule:evenodd;fill:#D51723;}
	.st11{fill-rule:evenodd;clip-rule:evenodd;fill:#7B7B7B;}
	.st12{fill-rule:evenodd;clip-rule:evenodd;fill:#F4F4F4;}
	.st13{fill-rule:evenodd;clip-rule:evenodd;fill:#404040;}
	.st14{fill-rule:evenodd;clip-rule:evenodd;fill:none;stroke:#7B7B7B;stroke-width:1.0366;stroke-miterlimit:22.9256;}
</style>
<g id="_x23_Layer_1">
	<g>
		<g>
			<g>
				<g>
					<path class="st3" d="M15,14c-0.3,0-0.5-0.1-0.7-0.3c-0.4-0.4-0.4-1,0-1.4l12-12c0.4-0.4,1-0.4,1.4,0s0.4,1,0,1.4l-12,12
						C15.5,13.9,15.3,14,15,14z"/>
				</g>
				<g>
					<path class="st3" d="M27,14c-0.3,0-0.5-0.1-0.7-0.3l-12-12c-0.4-0.4-0.4-1,0-1.4s1-0.4,1.4,0l12,12c0.4,0.4,0.4,1,0,1.4
						C27.5,13.9,27.3,14,27,14z"/>
				</g>
			</g>
		</g>
		<g>
			<g>
				<g>
					<path class="st4" d="M1,14c-0.3,0-0.5-0.1-0.7-0.3c-0.4-0.4-0.4-1,0-1.4l12-12c0.4-0.4,1-0.4,1.4,0s0.4,1,0,1.4l-12,12
						C1.5,13.9,1.3,14,1,14z"/>
				</g>
				<g>
					<path class="st4" d="M13,14c-0.3,0-0.5-0.1-0.7-0.3l-12-12c-0.4-0.4-0.4-1,0-1.4s1-0.4,1.4,0l12,12c0.4,0.4,0.4,1,0,1.4
						C13.5,13.9,13.3,14,13,14z"/>
				</g>
			</g>
		</g>
	</g>
</g>
<g id="_x23_Layer_1_1_">
</g>
<g id="Layer_1">
</g>
<g id="_x23_Layer_1_2_">
</g>
<g id="_x23_Layer_1_3_">
</g>
<g id="_x23_Layer_1_4_">
</g>
<g id="_x23_Layer_1_5_">
</g>
<g id="_x23_Layer_1_6_">
</g>
<g id="_x23_Layer_1_7_">
</g>
<g id="_x23_Layer_1_8_">
</g>
<g id="_x23_Layer_1_9_">
</g>
<g id="_x23_Layer_1_10_">
</g>
<g id="_x23_Layer_1_11_">
</g>
<g id="_x23_Layer_1_12_">
</g>
<g id="_x23_Layer_1_13_">
</g>
<g id="_x23_Layer_1_14_">
</g>
<g id="_x23_Layer_1_15_">
</g>
<g id="_x23_Layer_1_16_">
</g>
<g id="_x23_Layer_1_17_">
</g>
<g id="_x23_Layer_1_18_">
</g>
<g id="_x23_Layer_1_19_">
</g>
<g id="_x23_Layer_1_20_">
</g>
<g id="_x23_Layer_1_21_">
</g>
<g id="_x23_Layer_1_22_">
</g>
<g id="_x23_Layer_1_23_">
</g>
<g id="_x23_Layer_1_24_">
</g>
<g id="_x23_Layer_1_25_">
</g>
<g id="_x23_Layer_1_26_">
</g>
</svg>
