<?xml version="1.0" encoding="utf-8"?>
<!-- Generator: Adobe Illustrator 16.0.0, SVG Export Plug-In . SVG Version: 6.00 Build 0)  -->
<!DOCTYPE svg PUBLIC "-//W3C//DTD SVG 1.1//EN" "http://www.w3.org/Graphics/SVG/1.1/DTD/svg11.dtd">
<svg version="1.1" id="Layer_1" xmlns="http://www.w3.org/2000/svg" xmlns:xlink="http://www.w3.org/1999/xlink" x="0px" y="0px"
	 width="87.8px" height="40px" viewBox="-250.8 36.7 87.8 40" style="enable-background:new -250.8 36.7 87.8 40;"
	 xml:space="preserve">
<style type="text/css">
<![CDATA[
	.st0{fill-rule:evenodd;clip-rule:evenodd;fill:#D61723;}
	.st1{fill-rule:evenodd;clip-rule:evenodd;fill:#404040;}
]]>
</style>
<g>
	<polygon class="st0" points="-234.1,54.7 -238.1,58.7 -232.5,58.7 -228.5,54.7 	"/>
	<path class="st1" d="M-167.5,54.7h-10.7l0.5-2.2c0.1-0.5,0.5-0.8,0.9-0.8h9.9l4-4h-13.3c-2.6,0-5.2,2.2-5.7,4.7l-0.7,3.2
		c-0.2,0.8,0,1.6,0.4,2.2c0.4,0.6,1.2,0.9,2,0.9h10.7l-0.5,2.2c-0.1,0.5-0.4,0.8-0.9,0.8h-14.7l2-9.4c0.3-1.2,0-2.4-0.7-3.3
		c-0.7-0.8-1.7-1.3-2.9-1.3H-204c0,0-3.1-0.1-4,4c-0.5,2.4-1.5,6.8-2.1,10H-225c-0.3,0-0.5-0.1-0.6-0.3c-0.1-0.1-0.2-0.3-0.1-0.7
		l0.4-2.1h9.3c1.3,0,2.5-0.5,3.6-1.4c1.1-0.9,1.8-2,2.1-3.3l0.4-1.7c0.2-1.2,0-2.4-0.7-3.3c-0.7-0.8-1.7-1.3-2.9-1.3h-8.7
		c-2.6,0-5.2,2.2-5.7,4.7l-0.5,2.2h4l0.5-2.2c0.1-0.5,0.5-0.8,0.9-0.8h9l-0.6,2.6c-0.1,0.5-0.5,0.8-0.9,0.8h-6.1l-3.7,3.6h-3.9
		l-0.5,2.5c0,0.2-0.1,0.4-0.1,0.6h-11.2l3-3l4-4l7-7H-243l-4,4h10.3l-3,3l-4,4l-7,7h24.5h0.6h15.1l0,0h1.5c2.2,0,2.4-1.8,2.4-1.8
		l2.6-12.2h5.3c0.2,0,0.5,0.1,0.6,0.3c0.2,0.2,0.2,0.4,0.2,0.7l-2.8,13h4l3-14h5.2c0.3,0,0.5,0.1,0.7,0.3c0.1,0.2,0.2,0.4,0.1,0.7
		l-2.5,12c-0.3,1.2,0.8,1.1,0.8,1.1h1.5l0,0h16.5c2.6,0,5.2-2.1,5.7-4.7l0.7-3.2c0.2-0.8,0-1.6-0.5-2.2
		C-166,55-166.7,54.7-167.5,54.7z"/>
</g>
</svg>
